<svg width="1600" height="800" viewBox="0 0 1600 800" fill="none" xmlns="http://www.w3.org/2000/svg">
<path d="M155.5 445V444.5H155H125.5V165.5H184.5V215V215.5H185H465H465.5V215V165.5H524.5V434.5H495H494.5V435V524.5H435H434.5V525V564.5H375H374.5V565V624.5H335.5V565V564.5H335H315H314.5V565V624.5H275.5V565V564.5H275H215.5V525V524.5H215H155.5V445ZM495.5 255V254.5H495H335H334.5V255V294.5H315.5V255V254.5H315H155H154.5V255V385V385.5H155H495H495.5V385V255ZM215.5 344.5V295.5H274.5V344.5H215.5ZM375.5 295.5H434.5V344.5H375.5V295.5Z" fill="white" stroke="white"/>
<path d="M334.5 404.5H315.5V345.5H334.5V404.5Z" fill="#FACC15" stroke="#FACC15"/>
<path d="M1415.5 520V510.5H1444.5V520V520.5H1445H1454.5V659.5H1444H1443.5V660V669.5H1415.5V660V659.5H1415H1405.5V520.5H1415H1415.5V520ZM1414.5 550V550.5H1415H1425H1425.5V550V540.5H1435H1435.5V540V530V529.5H1435H1415H1414.5V530V550Z" fill="#FACC15" stroke="#FACC15"/>
<path d="M1245.5 529.5V520.5H1255H1255.5V520V510.5H1364.5V520V520.5H1365H1374.5V659.5H1365H1364.5V660V669.5H1345.5V660V659.5H1345H1335.5V630V629.5H1335H1325.5V620V619.5H1325H1295H1294.5V620V629.5H1285H1284.5V630V659.5H1275H1274.5V660V669.5H1245.5V660V659.5H1245H1235.5V530.5H1244.5V550V550.5H1245H1255H1255.5V550V540.5H1265H1265.5V540V530V529.5H1265H1245.5ZM1335 590.5H1335.5V590V560V559.5H1335H1325.5V550V549.5H1325H1295H1294.5V550V559.5H1285H1284.5V560V590V590.5H1285H1335Z" fill="#FACC15" stroke="#FACC15"/>
<path d="M1175.5 629.5V620.5H1204.5V630V630.5H1205H1214.5V659.5H1205H1204.5V660V669.5H1175.5V660V659.5H1175H1165.5V630.5H1174.5V650V650.5H1175H1185H1185.5V650V640.5H1195H1195.5V640V630V629.5H1195H1175.5Z" fill="#FACC15" stroke="#FACC15"/>
<path d="M1015 520.5H1015.5V520V510.5H1044.5V520V520.5H1045H1054.5V630V630.5H1055H1064.5V640V640.5H1065H1095H1095.5V640V630.5H1105H1105.5V630V520.5H1115H1115.5V520V510.5H1134.5V520V520.5H1135H1144.5V659.5H1135H1134.5V660V669.5H1025.5V660V659.5H1025H1015.5V650V649.5H1015H1005.5V520.5H1015ZM1014.5 550V550.5H1015H1025H1025.5V550V540.5H1035H1035.5V540V530V529.5H1035H1015H1014.5V530V550Z" fill="white" stroke="white"/>
<path d="M845.5 529.5V520.5H855H855.5V520V510.5H964.5V520V520.5H965H974.5V659.5H965H964.5V660V669.5H855.5V660V659.5H855H845.5V650V649.5H845H835.5V530.5H844.5V550V550.5H845H855H855.5V550V540.5H865H865.5V540V530V529.5H865H845.5ZM935.5 560V559.5H935H925.5V550V549.5H925H895H894.5V550V559.5H885H884.5V560V630V630.5H885H894.5V640V640.5H895H925H925.5V640V630.5H935H935.5V630V560Z" fill="white" stroke="white"/>
<path d="M675.5 520V510.5H694.5V520V520.5H695H704.5V530V530.5H705H714.5V540V540.5H715H724.5V550V550.5H725H734.5V560V560.5H735H745H745.5V560V550.5H755H755.5V550V530.5H765H765.5V530V520.5H775H775.5V520V510.5H794.5V520V520.5H795H804.5V559.5H795H794.5V560V589.5H785H784.5V590V599.5H775H774.5V600V609.5H765H764.5V610V619.5H755H754.5V620V629.5H745H744.5V630V639.5H735H734.5V640V649.5H725H724.5V650V659.5H715H714.5V660V669.5H685.5V660V659.5H685H675.5V640.5H685H685.5V640V630.5H695H695.5V630V620.5H705H705.5V620V610.5H715H715.5V610V600V599.5H715H705.5V590V589.5H705H695.5V580V579.5H695H685.5V570V569.5H685H675.5V560V559.5H675H665.5V520.5H675H675.5V520ZM674.5 550V550.5H675H685H685.5V550V540.5H695H695.5V540V530V529.5H695H675H674.5V530V550Z" fill="white" stroke="white"/>
<path d="M1345 330.5H1345.5V330V320.5H1464.5V330V330.5H1465H1474.5V359.5H1465H1464.5V360V369.5H1435H1434.5V370V469.5H1425H1424.5V470V479.5H1395.5V470V469.5H1395H1385.5V370V369.5H1385H1345.5V360.5H1355H1355.5V360V350.5H1365H1365.5V350V340V339.5H1365H1345H1344.5V340V359.5H1335.5V330.5H1345Z" fill="white" stroke="white"/>
<path d="M1185 330.5H1185.5V330V320.5H1214.5V330V330.5H1215H1224.5V440V440.5H1225H1234.5V450V450.5H1235H1265H1265.5V450V440.5H1275H1275.5V440V330.5H1285H1285.5V330V320.5H1304.5V330V330.5H1305H1314.5V469.5H1305H1304.5V470V479.5H1195.5V470V469.5H1195H1185.5V460V459.5H1185H1175.5V330.5H1185ZM1184.5 360V360.5H1185H1195H1195.5V360V350.5H1205H1205.5V350V340V339.5H1205H1185H1184.5V340V360Z" fill="white" stroke="white"/>
<path d="M1015.5 339.5V330.5H1025H1025.5V330V320.5H1134.5V330V330.5H1135H1144.5V469.5H1135H1134.5V470V479.5H1025.5V470V469.5H1025H1015.5V460V459.5H1015H1005.5V340.5H1014.5V360V360.5H1015H1025H1025.5V360V350.5H1035H1035.5V350V340V339.5H1035H1015.5ZM1105.5 370V369.5H1105H1095.5V360V359.5H1095H1065H1064.5V360V369.5H1055H1054.5V370V440V440.5H1055H1064.5V450V450.5H1065H1095H1095.5V450V440.5H1105H1105.5V440V370Z" fill="white" stroke="white"/>
<path d="M845 330.5H845.5V330V320.5H954.5V330V330.5H955H964.5V340V340.5H965H974.5V379.5H965H964.5V380V389.5H955H954.5V390V410V410.5H955H964.5V420V420.5H965H974.5V459.5H965H964.5V460V469.5H955H954.5V470V479.5H845.5V470V469.5H845H835.5V330.5H845ZM935.5 370V369.5H935H925.5V360V359.5H925H885H884.5V360V390V390.5H885H925H925.5V390V380.5H935H935.5V380V370ZM925.5 420V419.5H925H885H884.5V420V450V450.5H885H935H935.5V450V430V429.5H935H925.5V420ZM855 360.5H855.5V360V350.5H865H865.5V350V340V339.5H865H845H844.5V340V360V360.5H845H855Z" fill="white" stroke="white"/>
<path d="M675.5 339.5V330.5H685H685.5V330V320.5H794.5V330V330.5H795H804.5V469.5H795H794.5V470V479.5H775.5V470V469.5H775H765.5V440V439.5H765H755.5V430V429.5H755H725H724.5V430V439.5H715H714.5V440V469.5H705H704.5V470V479.5H675.5V470V469.5H675H665.5V340.5H674.5V360V360.5H675H685H685.5V360V350.5H695H695.5V350V340V339.5H695H675.5ZM765 400.5H765.5V400V370V369.5H765H755.5V360V359.5H755H725H724.5V360V369.5H715H714.5V370V400V400.5H715H765Z" fill="white" stroke="white"/>
<path d="M1175 140.5H1175.5V140V130.5H1294.5V140V140.5H1295H1304.5V169.5H1295H1294.5V170V179.5H1265H1264.5V180V279.5H1255H1254.5V280V289.5H1225.5V280V279.5H1225H1215.5V180V179.5H1215H1175.5V170.5H1185H1185.5V170V160.5H1195H1195.5V160V150V149.5H1195H1175H1174.5V150V169.5H1165.5V140.5H1175Z" fill="white" stroke="white"/>
<path d="M1015.5 149.5V140.5H1025H1025.5V140V130.5H1134.5V140V140.5H1135H1144.5V279.5H1135H1134.5V280V289.5H1115.5V280V279.5H1115H1105.5V250V249.5H1105H1095.5V240V239.5H1095H1065H1064.5V240V249.5H1055H1054.5V250V279.5H1045H1044.5V280V289.5H1015.5V280V279.5H1015H1005.5V150.5H1014.5V170V170.5H1015H1025H1025.5V170V160.5H1035H1035.5V160V150V149.5H1035H1015.5ZM1105 210.5H1105.5V210V180V179.5H1105H1095.5V170V169.5H1095H1065H1064.5V170V179.5H1055H1054.5V180V210V210.5H1055H1105Z" fill="white" stroke="white"/>
<path d="M845 140.5H845.5V140V130.5H874.5V140V140.5H875H884.5V210V210.5H885H935H935.5V210V140.5H945H945.5V140V130.5H964.5V140V140.5H965H974.5V279.5H965H964.5V280V289.5H945.5V280V279.5H945H935.5V250V249.5H935H925.5V240V239.5H925H895H894.5V240V249.5H885H884.5V250V279.5H875H874.5V280V289.5H845.5V280V279.5H845H835.5V140.5H845ZM855 170.5H855.5V170V160.5H865H865.5V160V150V149.5H865H845H844.5V150V170V170.5H845H855Z" fill="white" stroke="white"/>
<path d="M675 140.5H675.5V140V130.5H704.5V140V140.5H705H714.5V220V220.5H715H725H725.5V220V210.5H735H735.5V210V200.5H744.5V210V210.5H745H754.5V220V220.5H755H765H765.5V220V140.5H775H775.5V140V130.5H794.5V140V140.5H795H804.5V279.5H795H794.5V280V289.5H775.5V280V279.5H775H765.5V250V249.5H765H755.5V240V239.5H755H745.5V230V229.5H745H735H734.5V230V239.5H725H724.5V240V249.5H715H714.5V250V279.5H705H704.5V280V289.5H675.5V280V279.5H675H665.5V140.5H675ZM685 170.5H685.5V170V160.5H695H695.5V160V150V149.5H695H675H674.5V150V170V170.5H675H685Z" fill="white" stroke="white"/>
</svg>
