<svg width="200" height="200" viewBox="0 0 200 200" fill="none" xmlns="http://www.w3.org/2000/svg">
<rect width="200" height="200" fill="white"/>
<rect x="10" y="10" width="180" height="180" fill="white"/>
<rect x="11" y="11" width="178" height="178" stroke="black" stroke-width="2"/>
<path d="M26.2578 128L23.5625 115.32H25.4844L26.9609 123.406L27.2188 125.223L27.5352 123.406L29.5625 115.32H30.957L32.9727 123.406L33.3125 125.398L33.6289 123.406L35.0352 115.32H36.957L34.2617 128H32.5508L30.5703 120.23L30.2422 118.262L29.9258 120.23L27.9688 128H26.2578ZM41.6211 117.207C41.793 116.949 41.9844 116.715 42.1953 116.504C42.4062 116.285 42.6289 116.094 42.8633 115.93C43.2383 115.656 43.6484 115.449 44.0938 115.309C44.5469 115.168 45.0273 115.094 45.5352 115.086C46.1992 115.086 46.8008 115.184 47.3398 115.379C47.8867 115.566 48.3516 115.863 48.7344 116.27C49.1172 116.676 49.4102 117.191 49.6133 117.816C49.8242 118.434 49.9297 119.168 49.9297 120.02V128H47.7617V119.996C47.7617 119.496 47.7031 119.059 47.5859 118.684C47.4688 118.301 47.2969 117.984 47.0703 117.734C46.8281 117.461 46.5234 117.258 46.1562 117.125C45.7891 116.984 45.3672 116.918 44.8906 116.926C44.5 116.926 44.1289 116.98 43.7773 117.09C43.4258 117.199 43.1016 117.355 42.8047 117.559C42.5703 117.715 42.3516 117.898 42.1484 118.109C41.9531 118.312 41.7773 118.539 41.6211 118.789V128H39.4531V110H41.6211V117.207ZM62.1992 128C62.1133 127.836 62.043 127.633 61.9883 127.391C61.9414 127.141 61.9062 126.883 61.8828 126.617C61.6641 126.836 61.418 127.043 61.1445 127.238C60.8789 127.434 60.5859 127.605 60.2656 127.754C59.9375 127.902 59.5898 128.02 59.2227 128.105C58.8555 128.191 58.4648 128.234 58.0508 128.234C57.3789 128.234 56.7695 128.137 56.2227 127.941C55.6836 127.746 55.2266 127.48 54.8516 127.145C54.4688 126.816 54.1719 126.426 53.9609 125.973C53.7578 125.512 53.6562 125.016 53.6562 124.484C53.6562 123.789 53.793 123.18 54.0664 122.656C54.3477 122.133 54.7422 121.695 55.25 121.344C55.7578 121 56.3672 120.742 57.0781 120.57C57.7969 120.398 58.5977 120.312 59.4805 120.312H61.8477V119.316C61.8477 118.934 61.7773 118.59 61.6367 118.285C61.4961 117.98 61.2969 117.719 61.0391 117.5C60.7812 117.289 60.4648 117.125 60.0898 117.008C59.7227 116.891 59.3086 116.832 58.8477 116.832C58.418 116.832 58.0312 116.887 57.6875 116.996C57.3516 117.105 57.0664 117.25 56.832 117.43C56.5977 117.609 56.4141 117.824 56.2812 118.074C56.1562 118.316 56.0938 118.57 56.0938 118.836H53.9141C53.9219 118.375 54.0391 117.922 54.2656 117.477C54.5 117.031 54.8359 116.629 55.2734 116.27C55.7031 115.918 56.2266 115.633 56.8438 115.414C57.4688 115.195 58.1758 115.086 58.9648 115.086C59.6836 115.086 60.3516 115.176 60.9688 115.355C61.5859 115.527 62.1211 115.789 62.5742 116.141C63.0195 116.5 63.3711 116.945 63.6289 117.477C63.8867 118.008 64.0156 118.629 64.0156 119.34V125.234C64.0156 125.656 64.0547 126.105 64.1328 126.582C64.2109 127.051 64.3203 127.461 64.4609 127.812V128H62.1992ZM58.3672 126.348C58.7891 126.348 59.1836 126.293 59.5508 126.184C59.918 126.074 60.2539 125.93 60.5586 125.75C60.8555 125.57 61.1133 125.367 61.332 125.141C61.5508 124.906 61.7227 124.664 61.8477 124.414V121.848H59.832C59.082 121.848 58.4258 121.914 57.8633 122.047C57.3086 122.172 56.8672 122.367 56.5391 122.633C56.3047 122.82 56.125 123.043 56 123.301C55.8828 123.559 55.8242 123.852 55.8242 124.18C55.8242 124.492 55.875 124.781 55.9766 125.047C56.0859 125.312 56.2461 125.539 56.457 125.727C56.668 125.922 56.9336 126.074 57.2539 126.184C57.5742 126.293 57.9453 126.348 58.3672 126.348ZM73.4141 112.25V115.32H78.2422V116.996H73.4141V123.887C73.4141 124.379 73.4766 124.785 73.6016 125.105C73.7266 125.426 73.8984 125.68 74.1172 125.867C74.3359 126.062 74.5859 126.199 74.8672 126.277C75.1562 126.355 75.4609 126.395 75.7812 126.395C76.0156 126.395 76.2578 126.383 76.5078 126.359C76.7578 126.328 77.0039 126.293 77.2461 126.254C77.4805 126.215 77.6992 126.176 77.9023 126.137C78.1133 126.09 78.2852 126.051 78.418 126.02L78.7227 127.555C78.543 127.664 78.3242 127.762 78.0664 127.848C77.8086 127.926 77.5273 127.992 77.2227 128.047C76.918 128.109 76.5938 128.156 76.25 128.188C75.9141 128.219 75.5781 128.234 75.2422 128.234C74.6797 128.234 74.1523 128.156 73.6602 128C73.1758 127.836 72.7539 127.578 72.3945 127.227C72.0352 126.883 71.75 126.438 71.5391 125.891C71.3359 125.336 71.2344 124.668 71.2344 123.887V116.996H67.9062V115.32H71.2344V112.25H73.4141ZM33.3711 148C33.2852 147.836 33.2148 147.633 33.1602 147.391C33.1133 147.141 33.0781 146.883 33.0547 146.617C32.8359 146.836 32.5898 147.043 32.3164 147.238C32.0508 147.434 31.7578 147.605 31.4375 147.754C31.1094 147.902 30.7617 148.02 30.3945 148.105C30.0273 148.191 29.6367 148.234 29.2227 148.234C28.5508 148.234 27.9414 148.137 27.3945 147.941C26.8555 147.746 26.3984 147.48 26.0234 147.145C25.6406 146.816 25.3438 146.426 25.1328 145.973C24.9297 145.512 24.8281 145.016 24.8281 144.484C24.8281 143.789 24.9648 143.18 25.2383 142.656C25.5195 142.133 25.9141 141.695 26.4219 141.344C26.9297 141 27.5391 140.742 28.25 140.57C28.9688 140.398 29.7695 140.312 30.6523 140.312H33.0195V139.316C33.0195 138.934 32.9492 138.59 32.8086 138.285C32.668 137.98 32.4688 137.719 32.2109 137.5C31.9531 137.289 31.6367 137.125 31.2617 137.008C30.8945 136.891 30.4805 136.832 30.0195 136.832C29.5898 136.832 29.2031 136.887 28.8594 136.996C28.5234 137.105 28.2383 137.25 28.0039 137.43C27.7695 137.609 27.5859 137.824 27.4531 138.074C27.3281 138.316 27.2656 138.57 27.2656 138.836H25.0859C25.0938 138.375 25.2109 137.922 25.4375 137.477C25.6719 137.031 26.0078 136.629 26.4453 136.27C26.875 135.918 27.3984 135.633 28.0156 135.414C28.6406 135.195 29.3477 135.086 30.1367 135.086C30.8555 135.086 31.5234 135.176 32.1406 135.355C32.7578 135.527 33.293 135.789 33.7461 136.141C34.1914 136.5 34.543 136.945 34.8008 137.477C35.0586 138.008 35.1875 138.629 35.1875 139.34V145.234C35.1875 145.656 35.2266 146.105 35.3047 146.582C35.3828 147.051 35.4922 147.461 35.6328 147.812V148H33.3711ZM29.5391 146.348C29.9609 146.348 30.3555 146.293 30.7227 146.184C31.0898 146.074 31.4258 145.93 31.7305 145.75C32.0273 145.57 32.2852 145.367 32.5039 145.141C32.7227 144.906 32.8945 144.664 33.0195 144.414V141.848H31.0039C30.2539 141.848 29.5977 141.914 29.0352 142.047C28.4805 142.172 28.0391 142.367 27.7109 142.633C27.4766 142.82 27.2969 143.043 27.1719 143.301C27.0547 143.559 26.9961 143.852 26.9961 144.18C26.9961 144.492 27.0469 144.781 27.1484 145.047C27.2578 145.312 27.418 145.539 27.6289 145.727C27.8398 145.922 28.1055 146.074 28.4258 146.184C28.7461 146.293 29.1172 146.348 29.5391 146.348ZM50.1992 141.801C50.1992 142.355 50.1562 142.891 50.0703 143.406C49.9922 143.914 49.875 144.391 49.7188 144.836C49.5078 145.422 49.2305 145.949 48.8867 146.418C48.5508 146.879 48.1445 147.262 47.668 147.566C47.3242 147.777 46.9453 147.941 46.5312 148.059C46.125 148.176 45.6836 148.234 45.207 148.234C44.6602 148.234 44.1602 148.168 43.707 148.035C43.2617 147.902 42.8594 147.711 42.5 147.461C42.3281 147.336 42.1641 147.199 42.0078 147.051C41.8516 146.902 41.7031 146.738 41.5625 146.559L41.457 148H39.4648V130H41.6328V136.68C41.8125 136.453 42.0117 136.25 42.2305 136.07C42.4492 135.883 42.6836 135.723 42.9336 135.59C43.2461 135.426 43.5898 135.301 43.9648 135.215C44.3398 135.129 44.7461 135.086 45.1836 135.086C45.7305 135.086 46.2344 135.16 46.6953 135.309C47.1562 135.457 47.5742 135.664 47.9492 135.93C48.2852 136.18 48.5859 136.484 48.8516 136.844C49.1172 137.195 49.3516 137.59 49.5547 138.027C49.7656 138.52 49.9258 139.066 50.0352 139.668C50.1445 140.262 50.1992 140.891 50.1992 141.555V141.801ZM48.0312 141.555C48.0312 141.156 48.0039 140.77 47.9492 140.395C47.9023 140.012 47.8281 139.652 47.7266 139.316C47.5859 138.902 47.4023 138.523 47.1758 138.18C46.9492 137.836 46.6719 137.566 46.3438 137.371C46.1172 137.23 45.8633 137.121 45.582 137.043C45.3008 136.965 44.9883 136.926 44.6445 136.926C44.2695 136.926 43.9258 136.977 43.6133 137.078C43.3008 137.172 43.0234 137.305 42.7812 137.477C42.5312 137.656 42.3086 137.867 42.1133 138.109C41.9258 138.344 41.7656 138.602 41.6328 138.883V144.426C41.7734 144.707 41.9375 144.969 42.125 145.211C42.3203 145.445 42.543 145.652 42.793 145.832C43.043 146.012 43.3242 146.152 43.6367 146.254C43.9492 146.348 44.293 146.395 44.668 146.395C45.0273 146.395 45.3555 146.352 45.6523 146.266C45.9492 146.172 46.2148 146.039 46.4492 145.867C46.7617 145.648 47.0234 145.371 47.2344 145.035C47.4453 144.699 47.6133 144.324 47.7383 143.91C47.8398 143.598 47.9141 143.262 47.9609 142.902C48.0078 142.543 48.0312 142.176 48.0312 141.801V141.555ZM53.2578 141.543C53.2578 140.629 53.3906 139.781 53.6562 139C53.9219 138.211 54.3047 137.527 54.8047 136.949C55.2969 136.371 55.8984 135.918 56.6094 135.59C57.3203 135.254 58.1211 135.086 59.0117 135.086C59.9102 135.086 60.7148 135.254 61.4258 135.59C62.1445 135.918 62.7539 136.371 63.2539 136.949C63.7461 137.527 64.125 138.211 64.3906 139C64.6562 139.781 64.7891 140.629 64.7891 141.543V141.801C64.7891 142.715 64.6562 143.562 64.3906 144.344C64.125 145.125 63.7461 145.805 63.2539 146.383C62.7539 146.961 62.1484 147.414 61.4375 147.742C60.7266 148.07 59.9258 148.234 59.0352 148.234C58.1367 148.234 57.3281 148.07 56.6094 147.742C55.8984 147.414 55.2969 146.961 54.8047 146.383C54.3047 145.805 53.9219 145.125 53.6562 144.344C53.3906 143.562 53.2578 142.715 53.2578 141.801V141.543ZM55.4258 141.801C55.4258 142.426 55.5 143.023 55.6484 143.594C55.7969 144.156 56.0234 144.652 56.3281 145.082C56.625 145.512 57 145.852 57.4531 146.102C57.9062 146.352 58.4336 146.477 59.0352 146.477C59.6289 146.477 60.1484 146.352 60.5938 146.102C61.0469 145.852 61.4258 145.512 61.7305 145.082C62.0273 144.652 62.25 144.156 62.3984 143.594C62.5469 143.023 62.6211 142.426 62.6211 141.801V141.543C62.6211 140.926 62.543 140.336 62.3867 139.773C62.2383 139.203 62.0156 138.703 61.7188 138.273C61.4141 137.844 61.0352 137.504 60.582 137.254C60.1367 136.996 59.6133 136.867 59.0117 136.867C58.4102 136.867 57.8867 136.996 57.4414 137.254C56.9961 137.504 56.625 137.844 56.3281 138.273C56.0234 138.703 55.7969 139.203 55.6484 139.773C55.5 140.336 55.4258 140.926 55.4258 141.543V141.801ZM76.6367 148L76.5078 146.254C76.0859 146.879 75.5586 147.367 74.9258 147.719C74.293 148.062 73.5625 148.234 72.7344 148.234C72.0703 148.234 71.4688 148.133 70.9297 147.93C70.3906 147.719 69.9297 147.395 69.5469 146.957C69.1641 146.52 68.8672 145.965 68.6562 145.293C68.4531 144.613 68.3516 143.801 68.3516 142.855V135.32H70.5195V142.879C70.5195 143.566 70.5742 144.137 70.6836 144.59C70.793 145.043 70.957 145.402 71.1758 145.668C71.3945 145.941 71.6602 146.133 71.9727 146.242C72.293 146.352 72.6602 146.406 73.0742 146.406C73.5586 146.406 73.9922 146.352 74.375 146.242C74.7578 146.125 75.0898 145.965 75.3711 145.762C75.6055 145.598 75.8086 145.402 75.9805 145.176C76.1602 144.941 76.3086 144.688 76.4258 144.414V135.32H78.6055V148H76.6367ZM87.8281 132.25V135.32H92.6562V136.996H87.8281V143.887C87.8281 144.379 87.8906 144.785 88.0156 145.105C88.1406 145.426 88.3125 145.68 88.5312 145.867C88.75 146.062 89 146.199 89.2812 146.277C89.5703 146.355 89.875 146.395 90.1953 146.395C90.4297 146.395 90.6719 146.383 90.9219 146.359C91.1719 146.328 91.418 146.293 91.6602 146.254C91.8945 146.215 92.1133 146.176 92.3164 146.137C92.5273 146.09 92.6992 146.051 92.832 146.02L93.1367 147.555C92.957 147.664 92.7383 147.762 92.4805 147.848C92.2227 147.926 91.9414 147.992 91.6367 148.047C91.332 148.109 91.0078 148.156 90.6641 148.188C90.3281 148.219 89.9922 148.234 89.6562 148.234C89.0938 148.234 88.5664 148.156 88.0742 148C87.5898 147.836 87.168 147.578 86.8086 147.227C86.4492 146.883 86.1641 146.438 85.9531 145.891C85.75 145.336 85.6484 144.668 85.6484 143.887V136.996H82.3203V135.32H85.6484V132.25H87.8281ZM26.0586 173.121C25.8555 173.121 25.6172 173.098 25.3438 173.051C25.0703 173.004 24.8633 172.965 24.7227 172.934L25.0742 171.164C25.2695 171.18 25.4609 171.191 25.6484 171.199C25.8438 171.215 25.9961 171.223 26.1055 171.223C26.4023 171.223 26.6719 171.141 26.9141 170.977C27.1641 170.812 27.3867 170.617 27.582 170.391C27.7695 170.164 27.9297 169.93 28.0625 169.688C28.2031 169.445 28.3125 169.246 28.3906 169.09L29.2578 167.402L23.7969 155.32H26.2227L29.7031 163.5L30.2656 165.035L30.8633 163.547L34.1328 155.32H36.5586L30.125 169.957C29.9766 170.285 29.7852 170.633 29.5508 171C29.3242 171.367 29.0469 171.707 28.7188 172.02C28.3906 172.332 28.0078 172.594 27.5703 172.805C27.1328 173.016 26.6289 173.121 26.0586 173.121ZM38.8438 161.543C38.8438 160.629 38.9766 159.781 39.2422 159C39.5078 158.211 39.8906 157.527 40.3906 156.949C40.8828 156.371 41.4844 155.918 42.1953 155.59C42.9062 155.254 43.707 155.086 44.5977 155.086C45.4961 155.086 46.3008 155.254 47.0117 155.59C47.7305 155.918 48.3398 156.371 48.8398 156.949C49.332 157.527 49.7109 158.211 49.9766 159C50.2422 159.781 50.375 160.629 50.375 161.543V161.801C50.375 162.715 50.2422 163.562 49.9766 164.344C49.7109 165.125 49.332 165.805 48.8398 166.383C48.3398 166.961 47.7344 167.414 47.0234 167.742C46.3125 168.07 45.5117 168.234 44.6211 168.234C43.7227 168.234 42.9141 168.07 42.1953 167.742C41.4844 167.414 40.8828 166.961 40.3906 166.383C39.8906 165.805 39.5078 165.125 39.2422 164.344C38.9766 163.562 38.8438 162.715 38.8438 161.801V161.543ZM41.0117 161.801C41.0117 162.426 41.0859 163.023 41.2344 163.594C41.3828 164.156 41.6094 164.652 41.9141 165.082C42.2109 165.512 42.5859 165.852 43.0391 166.102C43.4922 166.352 44.0195 166.477 44.6211 166.477C45.2148 166.477 45.7344 166.352 46.1797 166.102C46.6328 165.852 47.0117 165.512 47.3164 165.082C47.6133 164.652 47.8359 164.156 47.9844 163.594C48.1328 163.023 48.207 162.426 48.207 161.801V161.543C48.207 160.926 48.1289 160.336 47.9727 159.773C47.8242 159.203 47.6016 158.703 47.3047 158.273C47 157.844 46.6211 157.504 46.168 157.254C45.7227 156.996 45.1992 156.867 44.5977 156.867C43.9961 156.867 43.4727 156.996 43.0273 157.254C42.582 157.504 42.2109 157.844 41.9141 158.273C41.6094 158.703 41.3828 159.203 41.2344 159.773C41.0859 160.336 41.0117 160.926 41.0117 161.543V161.801ZM62.2227 168L62.0938 166.254C61.6719 166.879 61.1445 167.367 60.5117 167.719C59.8789 168.062 59.1484 168.234 58.3203 168.234C57.6562 168.234 57.0547 168.133 56.5156 167.93C55.9766 167.719 55.5156 167.395 55.1328 166.957C54.75 166.52 54.4531 165.965 54.2422 165.293C54.0391 164.613 53.9375 163.801 53.9375 162.855V155.32H56.1055V162.879C56.1055 163.566 56.1602 164.137 56.2695 164.59C56.3789 165.043 56.543 165.402 56.7617 165.668C56.9805 165.941 57.2461 166.133 57.5586 166.242C57.8789 166.352 58.2461 166.406 58.6602 166.406C59.1445 166.406 59.5781 166.352 59.9609 166.242C60.3438 166.125 60.6758 165.965 60.957 165.762C61.1914 165.598 61.3945 165.402 61.5664 165.176C61.7461 164.941 61.8945 164.688 62.0117 164.414V155.32H64.1914V168H62.2227Z" fill="black"/>
</svg>
